<?xml version="1.0" standalone="no"?>
<!DOCTYPE svg PUBLIC "-//W3C//DTD SVG 20010904//EN"
 "http://www.w3.org/TR/2001/REC-SVG-20010904/DTD/svg10.dtd">
<svg version="1.0" xmlns="http://www.w3.org/2000/svg"
 width="259.000000pt" height="194.000000pt" viewBox="0 0 259.000000 194.000000"
 preserveAspectRatio="xMidYMid meet">

<g transform="translate(0.000000,194.000000) scale(0.100000,-0.100000)"
fill="#000000" stroke="none">
<path d="M1465 1391 c-3 -5 -20 -7 -38 -4 -46 7 -102 -19 -129 -61 -19 -30
-29 -36 -60 -36 -20 0 -39 -4 -43 -10 -3 -5 -12 -7 -19 -4 -8 3 -16 1 -20 -4
-7 -12 59 -48 115 -62 40 -10 51 -9 73 5 21 14 29 15 41 5 8 -7 15 -19 15 -26
0 -8 6 -14 13 -14 6 0 38 -14 70 -31 35 -18 81 -33 113 -36 49 -5 54 -4 54 14
0 10 -16 34 -35 53 -30 29 -35 41 -35 78 0 36 -5 49 -31 73 -17 16 -35 29 -39
29 -4 0 -10 9 -13 20 -5 21 -22 27 -32 11z"/>
<path d="M1232 1177 c-12 -14 21 -104 51 -138 11 -13 16 -28 12 -41 -6 -17 -4
-18 13 -9 11 6 21 8 24 6 13 -13 0 94 -15 122 -23 43 -71 77 -85 60z"/>
<path d="M756 1031 l-27 -28 102 -44 c65 -28 119 -58 148 -85 32 -29 52 -40
61 -34 10 6 7 14 -16 34 -16 14 -35 23 -42 21 -7 -3 -11 -1 -7 4 4 7 -62 63
-181 153 -6 4 -22 -4 -38 -21z"/>
<path d="M1512 928 c-5 -7 -13 -33 -17 -57 l-7 -44 53 6 c29 4 60 13 68 22 14
13 12 15 -17 15 -35 0 -41 10 -17 30 23 19 18 33 -10 28 -14 -3 -25 -1 -25 3
0 13 -16 11 -28 -3z"/>
<path d="M955 785 c-21 -21 -25 -33 -25 -89 0 -73 0 -74 93 -105 l51 -17 18
-100 c24 -127 27 -136 40 -104 20 52 78 292 72 301 -3 5 -10 7 -15 3 -5 -3 -8
0 -7 8 2 7 -5 12 -14 12 -10 -1 -16 3 -15 9 3 16 -138 107 -165 107 -5 0 -20
-11 -33 -25z"/>
<path d="M1345 710 c-16 -17 -23 -30 -16 -30 9 0 12 -9 9 -25 -5 -22 -2 -25
26 -25 39 0 76 25 76 50 0 15 -46 60 -62 60 -2 0 -17 -13 -33 -30z"/>
<path d="M595 429 c-71 -71 -84 -88 -60 -79 17 7 102 39 189 71 88 33 161 61
163 63 2 2 1 11 -3 20 -5 13 -22 16 -103 16 l-96 0 -90 -91z"/>
</g>
</svg>
